G04*
G04 #@! TF.GenerationSoftware,Altium Limited,Altium Designer,19.1.9 (167)*
G04*
G04 Layer_Color=65535*
%FSLAX44Y44*%
%MOMM*%
G71*
G01*
G75*
%ADD10C,0.2000*%
G36*
X162715Y510750D02*
X161538D01*
Y518259D01*
X161518Y518238D01*
X161465Y518186D01*
X161372Y518113D01*
X161236Y518009D01*
X161080Y517884D01*
X160882Y517748D01*
X160664Y517602D01*
X160414Y517446D01*
X160403D01*
X160382Y517425D01*
X160351Y517405D01*
X160299Y517384D01*
X160237Y517342D01*
X160164Y517311D01*
X159997Y517217D01*
X159810Y517123D01*
X159601Y517019D01*
X159383Y516926D01*
X159174Y516842D01*
Y517977D01*
X159185Y517988D01*
X159216Y517998D01*
X159268Y518029D01*
X159341Y518061D01*
X159424Y518102D01*
X159529Y518165D01*
X159643Y518227D01*
X159758Y518290D01*
X160028Y518456D01*
X160320Y518654D01*
X160622Y518862D01*
X160903Y519102D01*
X160914Y519112D01*
X160934Y519133D01*
X160976Y519165D01*
X161028Y519217D01*
X161080Y519279D01*
X161153Y519342D01*
X161309Y519519D01*
X161486Y519706D01*
X161663Y519925D01*
X161820Y520154D01*
X161955Y520393D01*
X162715D01*
Y510750D01*
D02*
G37*
G36*
X157737D02*
X156290D01*
X155175Y513656D01*
X151135D01*
X150093Y510750D01*
X148750D01*
X152426Y520362D01*
X153801D01*
X157737Y510750D01*
D02*
G37*
G36*
X347111Y359133D02*
X347226Y359123D01*
X347361Y359102D01*
X347518Y359081D01*
X347674Y359050D01*
X347851Y359008D01*
X348028Y358956D01*
X348215Y358893D01*
X348392Y358820D01*
X348580Y358727D01*
X348757Y358623D01*
X348923Y358508D01*
X349080Y358373D01*
X349090Y358362D01*
X349111Y358341D01*
X349152Y358289D01*
X349205Y358237D01*
X349267Y358164D01*
X349340Y358071D01*
X349413Y357967D01*
X349486Y357842D01*
X349559Y357717D01*
X349632Y357571D01*
X349705Y357415D01*
X349767Y357248D01*
X349819Y357061D01*
X349861Y356873D01*
X349882Y356675D01*
X349892Y356467D01*
Y356456D01*
Y356446D01*
Y356415D01*
Y356373D01*
X349882Y356259D01*
X349861Y356113D01*
X349829Y355936D01*
X349788Y355748D01*
X349736Y355540D01*
X349652Y355332D01*
Y355321D01*
X349642Y355311D01*
X349632Y355280D01*
X349611Y355238D01*
X349548Y355123D01*
X349465Y354978D01*
X349350Y354801D01*
X349215Y354603D01*
X349059Y354395D01*
X348861Y354165D01*
X348851Y354155D01*
X348840Y354134D01*
X348798Y354103D01*
X348757Y354051D01*
X348694Y353988D01*
X348621Y353915D01*
X348538Y353822D01*
X348434Y353728D01*
X348309Y353614D01*
X348174Y353489D01*
X348028Y353343D01*
X347861Y353197D01*
X347684Y353030D01*
X347486Y352864D01*
X347268Y352676D01*
X347038Y352478D01*
X347028Y352468D01*
X346997Y352437D01*
X346934Y352395D01*
X346872Y352333D01*
X346778Y352260D01*
X346684Y352176D01*
X346466Y351989D01*
X346237Y351791D01*
X346018Y351583D01*
X345914Y351489D01*
X345820Y351406D01*
X345737Y351322D01*
X345674Y351260D01*
X345664Y351250D01*
X345622Y351208D01*
X345570Y351145D01*
X345497Y351062D01*
X345414Y350968D01*
X345331Y350864D01*
X345164Y350635D01*
X349902D01*
Y349500D01*
X343539D01*
Y349521D01*
Y349573D01*
Y349656D01*
X343550Y349760D01*
X343560Y349885D01*
X343591Y350021D01*
X343623Y350167D01*
X343675Y350312D01*
Y350323D01*
X343685Y350344D01*
X343696Y350375D01*
X343716Y350427D01*
X343748Y350479D01*
X343779Y350552D01*
X343862Y350718D01*
X343966Y350916D01*
X344102Y351135D01*
X344258Y351364D01*
X344445Y351593D01*
X344456Y351604D01*
X344466Y351624D01*
X344497Y351656D01*
X344549Y351708D01*
X344602Y351760D01*
X344674Y351833D01*
X344747Y351916D01*
X344841Y352010D01*
X344945Y352114D01*
X345060Y352218D01*
X345185Y352343D01*
X345331Y352468D01*
X345476Y352603D01*
X345643Y352739D01*
X345810Y352884D01*
X345997Y353041D01*
X346018Y353051D01*
X346070Y353103D01*
X346143Y353166D01*
X346247Y353259D01*
X346372Y353364D01*
X346518Y353489D01*
X346684Y353624D01*
X346851Y353780D01*
X347205Y354103D01*
X347549Y354447D01*
X347715Y354613D01*
X347872Y354780D01*
X348007Y354936D01*
X348121Y355082D01*
X348132Y355092D01*
X348142Y355113D01*
X348174Y355155D01*
X348205Y355207D01*
X348257Y355280D01*
X348299Y355353D01*
X348403Y355540D01*
X348507Y355759D01*
X348601Y355998D01*
X348663Y356248D01*
X348674Y356373D01*
X348684Y356498D01*
Y356509D01*
Y356529D01*
Y356571D01*
X348674Y356613D01*
Y356675D01*
X348653Y356748D01*
X348621Y356904D01*
X348559Y357092D01*
X348465Y357290D01*
X348413Y357394D01*
X348340Y357487D01*
X348267Y357581D01*
X348174Y357675D01*
X348163Y357685D01*
X348153Y357696D01*
X348121Y357717D01*
X348080Y357748D01*
X348028Y357789D01*
X347965Y357831D01*
X347820Y357925D01*
X347622Y358008D01*
X347403Y358092D01*
X347143Y358144D01*
X346997Y358164D01*
X346768D01*
X346705Y358154D01*
X346632D01*
X346549Y358133D01*
X346362Y358102D01*
X346143Y358040D01*
X345914Y357946D01*
X345799Y357883D01*
X345685Y357821D01*
X345580Y357738D01*
X345476Y357644D01*
X345466Y357633D01*
X345456Y357623D01*
X345435Y357592D01*
X345393Y357550D01*
X345362Y357498D01*
X345320Y357435D01*
X345268Y357363D01*
X345226Y357279D01*
X345174Y357186D01*
X345133Y357081D01*
X345049Y356831D01*
X344987Y356561D01*
X344977Y356404D01*
X344966Y356238D01*
X343758Y356363D01*
Y356384D01*
X343769Y356425D01*
X343779Y356488D01*
X343789Y356581D01*
X343810Y356696D01*
X343841Y356831D01*
X343873Y356977D01*
X343925Y357133D01*
X343977Y357290D01*
X344039Y357467D01*
X344123Y357633D01*
X344206Y357800D01*
X344310Y357977D01*
X344425Y358133D01*
X344549Y358289D01*
X344695Y358425D01*
X344706Y358435D01*
X344737Y358456D01*
X344779Y358487D01*
X344841Y358539D01*
X344924Y358591D01*
X345029Y358654D01*
X345143Y358716D01*
X345279Y358789D01*
X345424Y358852D01*
X345591Y358914D01*
X345768Y358977D01*
X345966Y359029D01*
X346174Y359081D01*
X346393Y359112D01*
X346632Y359133D01*
X346882Y359143D01*
X347018D01*
X347111Y359133D01*
D02*
G37*
G36*
X339082Y359102D02*
X339197D01*
X339332Y359091D01*
X339488Y359081D01*
X339801Y359050D01*
X340124Y358998D01*
X340436Y358935D01*
X340571Y358893D01*
X340707Y358852D01*
X340717D01*
X340738Y358841D01*
X340769Y358820D01*
X340821Y358800D01*
X340946Y358737D01*
X341092Y358643D01*
X341269Y358518D01*
X341446Y358352D01*
X341623Y358164D01*
X341779Y357935D01*
Y357925D01*
X341800Y357904D01*
X341821Y357873D01*
X341842Y357821D01*
X341873Y357758D01*
X341904Y357685D01*
X341946Y357602D01*
X341988Y357508D01*
X342061Y357290D01*
X342123Y357050D01*
X342165Y356779D01*
X342186Y356488D01*
Y356477D01*
Y356446D01*
Y356384D01*
X342175Y356321D01*
X342165Y356227D01*
X342154Y356123D01*
X342133Y356009D01*
X342102Y355884D01*
X342019Y355613D01*
X341967Y355467D01*
X341904Y355321D01*
X341832Y355176D01*
X341738Y355030D01*
X341634Y354894D01*
X341519Y354759D01*
X341509Y354749D01*
X341488Y354728D01*
X341446Y354697D01*
X341394Y354645D01*
X341321Y354592D01*
X341238Y354530D01*
X341134Y354457D01*
X341009Y354384D01*
X340873Y354311D01*
X340728Y354238D01*
X340561Y354165D01*
X340373Y354093D01*
X340176Y354030D01*
X339957Y353968D01*
X339717Y353915D01*
X339468Y353874D01*
X339478D01*
X339488Y353863D01*
X339551Y353832D01*
X339645Y353780D01*
X339759Y353718D01*
X339884Y353645D01*
X340009Y353572D01*
X340134Y353478D01*
X340238Y353395D01*
X340248Y353384D01*
X340259Y353374D01*
X340290Y353343D01*
X340332Y353301D01*
X340384Y353249D01*
X340446Y353186D01*
X340582Y353041D01*
X340738Y352853D01*
X340915Y352635D01*
X341102Y352385D01*
X341290Y352114D01*
X342956Y349500D01*
X341363D01*
X340092Y351499D01*
X340082Y351510D01*
X340071Y351541D01*
X340040Y351583D01*
X339999Y351645D01*
X339957Y351718D01*
X339894Y351801D01*
X339770Y351989D01*
X339624Y352208D01*
X339478Y352426D01*
X339322Y352635D01*
X339176Y352822D01*
Y352832D01*
X339155Y352843D01*
X339113Y352895D01*
X339051Y352978D01*
X338957Y353072D01*
X338863Y353176D01*
X338749Y353280D01*
X338634Y353384D01*
X338530Y353457D01*
X338520Y353468D01*
X338478Y353489D01*
X338426Y353520D01*
X338353Y353561D01*
X338260Y353603D01*
X338166Y353645D01*
X338062Y353686D01*
X337947Y353718D01*
X337937D01*
X337905Y353728D01*
X337853Y353739D01*
X337780Y353749D01*
X337676D01*
X337551Y353759D01*
X337406Y353770D01*
X335770D01*
Y349500D01*
X334500D01*
Y359112D01*
X338968D01*
X339082Y359102D01*
D02*
G37*
G36*
X233632Y302182D02*
X232456D01*
Y309690D01*
X232435Y309670D01*
X232383Y309618D01*
X232289Y309545D01*
X232154Y309441D01*
X231997Y309316D01*
X231800Y309180D01*
X231581Y309034D01*
X231331Y308878D01*
X231320D01*
X231300Y308857D01*
X231268Y308837D01*
X231216Y308816D01*
X231154Y308774D01*
X231081Y308743D01*
X230914Y308649D01*
X230727Y308555D01*
X230519Y308451D01*
X230300Y308358D01*
X230092Y308274D01*
Y309409D01*
X230102Y309420D01*
X230133Y309430D01*
X230185Y309461D01*
X230258Y309493D01*
X230341Y309534D01*
X230446Y309597D01*
X230560Y309659D01*
X230675Y309722D01*
X230945Y309888D01*
X231237Y310086D01*
X231539Y310294D01*
X231820Y310534D01*
X231831Y310544D01*
X231852Y310565D01*
X231893Y310597D01*
X231945Y310649D01*
X231997Y310711D01*
X232070Y310774D01*
X232227Y310951D01*
X232404Y311138D01*
X232581Y311357D01*
X232737Y311586D01*
X232872Y311825D01*
X233632D01*
Y302182D01*
D02*
G37*
G36*
X224572Y311784D02*
X224687D01*
X224822Y311773D01*
X224978Y311763D01*
X225291Y311732D01*
X225614Y311680D01*
X225926Y311617D01*
X226061Y311576D01*
X226197Y311534D01*
X226207D01*
X226228Y311523D01*
X226259Y311503D01*
X226311Y311482D01*
X226436Y311419D01*
X226582Y311325D01*
X226759Y311201D01*
X226936Y311034D01*
X227113Y310847D01*
X227269Y310617D01*
Y310607D01*
X227290Y310586D01*
X227311Y310555D01*
X227332Y310503D01*
X227363Y310440D01*
X227394Y310367D01*
X227436Y310284D01*
X227478Y310190D01*
X227551Y309972D01*
X227613Y309732D01*
X227655Y309461D01*
X227675Y309170D01*
Y309159D01*
Y309128D01*
Y309066D01*
X227665Y309003D01*
X227655Y308909D01*
X227644Y308805D01*
X227624Y308691D01*
X227592Y308566D01*
X227509Y308295D01*
X227457Y308149D01*
X227394Y308003D01*
X227321Y307858D01*
X227228Y307712D01*
X227124Y307577D01*
X227009Y307441D01*
X226999Y307431D01*
X226978Y307410D01*
X226936Y307379D01*
X226884Y307327D01*
X226811Y307274D01*
X226728Y307212D01*
X226624Y307139D01*
X226499Y307066D01*
X226363Y306993D01*
X226218Y306920D01*
X226051Y306847D01*
X225863Y306775D01*
X225666Y306712D01*
X225447Y306650D01*
X225207Y306598D01*
X224958Y306556D01*
X224968D01*
X224978Y306546D01*
X225041Y306514D01*
X225135Y306462D01*
X225249Y306400D01*
X225374Y306327D01*
X225499Y306254D01*
X225624Y306160D01*
X225728Y306077D01*
X225739Y306066D01*
X225749Y306056D01*
X225780Y306025D01*
X225822Y305983D01*
X225874Y305931D01*
X225936Y305869D01*
X226072Y305723D01*
X226228Y305535D01*
X226405Y305317D01*
X226593Y305067D01*
X226780Y304796D01*
X228446Y302182D01*
X226853D01*
X225582Y304181D01*
X225572Y304192D01*
X225562Y304223D01*
X225530Y304265D01*
X225489Y304327D01*
X225447Y304400D01*
X225385Y304484D01*
X225259Y304671D01*
X225114Y304890D01*
X224968Y305108D01*
X224812Y305317D01*
X224666Y305504D01*
Y305515D01*
X224645Y305525D01*
X224603Y305577D01*
X224541Y305660D01*
X224447Y305754D01*
X224354Y305858D01*
X224239Y305962D01*
X224124Y306066D01*
X224020Y306139D01*
X224010Y306150D01*
X223968Y306171D01*
X223916Y306202D01*
X223843Y306243D01*
X223750Y306285D01*
X223656Y306327D01*
X223552Y306369D01*
X223437Y306400D01*
X223427D01*
X223395Y306410D01*
X223343Y306420D01*
X223270Y306431D01*
X223166D01*
X223041Y306441D01*
X222896Y306452D01*
X221261D01*
Y302182D01*
X219990D01*
Y311794D01*
X224458D01*
X224572Y311784D01*
D02*
G37*
%LPC*%
G36*
X153082Y519362D02*
Y519352D01*
X153072Y519321D01*
X153061Y519269D01*
X153051Y519206D01*
X153030Y519112D01*
X153009Y519019D01*
X152978Y518904D01*
X152947Y518779D01*
X152916Y518644D01*
X152874Y518498D01*
X152780Y518186D01*
X152676Y517852D01*
X152562Y517509D01*
X151499Y514687D01*
X154780D01*
X153770Y517352D01*
Y517363D01*
X153749Y517405D01*
X153728Y517467D01*
X153697Y517561D01*
X153655Y517654D01*
X153613Y517780D01*
X153561Y517915D01*
X153509Y518061D01*
X153405Y518383D01*
X153291Y518717D01*
X153176Y519050D01*
X153082Y519362D01*
D02*
G37*
G36*
X339009Y358050D02*
X335770D01*
Y354874D01*
X338645D01*
X338718Y354884D01*
X338801D01*
X338999Y354894D01*
X339218Y354915D01*
X339447Y354947D01*
X339665Y354988D01*
X339863Y355051D01*
X339874D01*
X339884Y355061D01*
X339947Y355082D01*
X340030Y355123D01*
X340144Y355186D01*
X340259Y355269D01*
X340384Y355363D01*
X340509Y355488D01*
X340613Y355623D01*
X340623Y355644D01*
X340655Y355696D01*
X340696Y355769D01*
X340748Y355884D01*
X340790Y356009D01*
X340832Y356155D01*
X340863Y356321D01*
X340873Y356488D01*
Y356498D01*
Y356519D01*
Y356550D01*
X340863Y356602D01*
Y356654D01*
X340853Y356727D01*
X340811Y356884D01*
X340748Y357061D01*
X340665Y357248D01*
X340540Y357425D01*
X340457Y357519D01*
X340373Y357602D01*
X340363Y357612D01*
X340353Y357623D01*
X340321Y357644D01*
X340280Y357675D01*
X340228Y357706D01*
X340155Y357748D01*
X340082Y357789D01*
X339988Y357831D01*
X339884Y357873D01*
X339770Y357904D01*
X339645Y357946D01*
X339509Y357977D01*
X339353Y358008D01*
X339186Y358029D01*
X339009Y358050D01*
D02*
G37*
G36*
X224499Y310732D02*
X221261D01*
Y307556D01*
X224135D01*
X224208Y307566D01*
X224291D01*
X224489Y307577D01*
X224708Y307597D01*
X224937Y307628D01*
X225155Y307670D01*
X225353Y307733D01*
X225364D01*
X225374Y307743D01*
X225436Y307764D01*
X225520Y307806D01*
X225634Y307868D01*
X225749Y307951D01*
X225874Y308045D01*
X225999Y308170D01*
X226103Y308305D01*
X226113Y308326D01*
X226145Y308378D01*
X226186Y308451D01*
X226238Y308566D01*
X226280Y308691D01*
X226322Y308837D01*
X226353Y309003D01*
X226363Y309170D01*
Y309180D01*
Y309201D01*
Y309232D01*
X226353Y309284D01*
Y309336D01*
X226343Y309409D01*
X226301Y309566D01*
X226238Y309743D01*
X226155Y309930D01*
X226030Y310107D01*
X225947Y310201D01*
X225863Y310284D01*
X225853Y310294D01*
X225843Y310305D01*
X225811Y310326D01*
X225770Y310357D01*
X225718Y310388D01*
X225645Y310430D01*
X225572Y310472D01*
X225478Y310513D01*
X225374Y310555D01*
X225259Y310586D01*
X225135Y310628D01*
X224999Y310659D01*
X224843Y310690D01*
X224676Y310711D01*
X224499Y310732D01*
D02*
G37*
%LPD*%
D10*
X355500Y326000D02*
Y360000D01*
Y326000D02*
X373500Y326000D01*
X373500Y360000D02*
X373500Y326000D01*
X355500Y360000D02*
X373500Y360000D01*
X168940Y526790D02*
X368940D01*
X368940Y366790D01*
X168940D02*
X368940D01*
X168940D02*
X168940Y526790D01*
X255000Y278000D02*
Y296000D01*
X221000Y278000D02*
X255000Y278000D01*
X221000Y278000D02*
X221000Y296000D01*
X255000D01*
M02*
