M48
;Layer_Color=9474304
;FILE_FORMAT=4:4
METRIC,LZ
;TYPE=PLATED
T1F00S00C0.5000
T2F00S00C0.7500
T3F00S00C0.9000
T4F00S00C1.0000
;TYPE=NON_PLATED
T5F00S00C3.2000
%
T01
X0024575Y000225
X0024375Y00091
X0027175Y00161
X0028175Y0020475
X002595Y0022225
X00367545Y00269537
X004525Y0028625
X0040475Y00184
X0052575Y00178
X0019675Y00208
X0011075Y00256
X0009475Y00282
X00074749Y00232999
X0010575Y00332
X0011875Y00374
X0009375Y00375
X0016275Y0038
X0018675Y00376
X00226748Y00333998
X0005675Y00464
X0005975Y00495
X0026475Y00515
X0027004Y00477047
X00291042Y00460047
X00317906Y0046025
X0032125Y0043825
X00287041Y00436796
X0025025Y0044225
X0029475Y00495
X00382107Y0049879
X0039225Y0048
X00379Y0046175
X003955Y004415
X0037875Y004085
X00383046Y00388293
X0034425Y003715
X00433798Y00358292
X00490801Y00377293
X0046475Y00405
X0048225Y0044
X0048875Y00465
X00477301Y00503299
X0049675Y005115
X00473Y0030525
X002705Y0030825
X00246748Y00339998
T02
X0004475Y000225
Y001425
X001285
X0021225
Y000225
T03
X0034025Y002865
X0041025
X0020475
X0013475
X0013475Y003315
X0020475
X0034025Y003315
X0041025Y003315
T04
X0023765Y0018375
X0023765Y002325
X0052648Y0023189
X0052648Y0020649
X0052648Y0025729
X0052648Y0028269
X0021225Y002325
X0018685Y002325
X0018685Y0018375
X0021225Y0018375
X0003157Y0020644
X0003157Y0023184
X0003157Y0025724
X0003157Y0028264
X0003157Y0030804
X0003107Y0033339
X0003157Y0035874
X0003157Y0038414
X0003157Y0040954
Y0043494
Y0046034
Y0048574
X004176Y004808
X004176Y004554
X00443
X00443Y004808
X00443Y0043
X004176Y0043
X004176Y004046
X00443Y004046
X00443Y003792
X004176Y003792
X0052648Y0038419
X0052648Y0040959
X0052648Y0043499
Y0046039
Y0048579
X0052698Y0035884
X0052648Y0033349
X0052648Y0030809
T05
X0055725Y-000005
X0Y0
Y005425
X005575
M30
