G04*
G04 #@! TF.GenerationSoftware,Altium Limited,Altium Designer,19.1.9 (167)*
G04*
G04 Layer_Physical_Order=1*
G04 Layer_Color=255*
%FSLAX44Y44*%
%MOMM*%
G71*
G01*
G75*
%ADD19R,1.3500X1.1500*%
%ADD20R,2.5000X1.0000*%
%ADD21R,1.0000X2.5000*%
%ADD22R,1.1500X1.3500*%
%ADD23C,1.0000*%
%ADD24C,1.8000*%
%ADD25C,1.2000*%
%ADD26C,1.3500*%
%ADD27C,2.5000*%
%ADD28C,1.8000*%
%ADD29C,1.5000*%
G36*
X340250Y286500D02*
D01*
D02*
G37*
D19*
X364500Y334250D02*
D03*
X364500Y351750D02*
D03*
D20*
X350640Y408790D02*
D03*
Y423790D02*
D03*
X350640Y438790D02*
D03*
Y453790D02*
D03*
X350640Y468790D02*
D03*
Y483790D02*
D03*
Y498790D02*
D03*
X350640Y513790D02*
D03*
X187240Y453790D02*
D03*
Y468790D02*
D03*
Y483790D02*
D03*
Y498790D02*
D03*
Y513790D02*
D03*
Y438790D02*
D03*
Y423790D02*
D03*
Y408790D02*
D03*
D21*
X216640Y386790D02*
D03*
X231640D02*
D03*
X246640D02*
D03*
X261640D02*
D03*
X276640D02*
D03*
X291640D02*
D03*
X306640D02*
D03*
X321640D02*
D03*
D22*
X246750Y287000D02*
D03*
X229250Y287000D02*
D03*
D23*
X344250Y371000D02*
Y371500D01*
Y371000D02*
X363500Y351750D01*
X364500D01*
X443575Y454825D02*
X477301Y488551D01*
Y503299D01*
X32310Y485000D02*
X42310Y495000D01*
X417750Y480800D02*
Y504250D01*
X390000Y532000D02*
X417750Y504250D01*
X392250Y479987D02*
Y480000D01*
Y479987D02*
X416837Y455400D01*
X417600D01*
X464150Y404800D02*
X464350Y404600D01*
X443200Y404800D02*
X464150D01*
X443000Y404600D02*
X443200Y404800D01*
X417219Y378819D02*
X418451Y377587D01*
X416877Y378819D02*
X417219D01*
X387195Y408500D02*
X416877Y378819D01*
X418451Y376791D02*
Y377587D01*
Y376791D02*
X433791Y361450D01*
X413650Y404600D02*
X417600D01*
X393750Y424500D02*
X413650Y404600D01*
X386792Y424500D02*
X393750D01*
X412000Y430000D02*
X417600D01*
X400500Y441500D02*
X412000Y430000D01*
X395500Y441500D02*
X400500D01*
X443000Y430000D02*
X464750D01*
X481750Y413000D01*
X372502Y438790D02*
X386792Y424500D01*
X241750Y532000D02*
X390000D01*
X69749Y232999D02*
X74749D01*
X246748Y341351D02*
X261640Y356243D01*
X246748Y339998D02*
Y341351D01*
X498577Y204750D02*
X526098Y232271D01*
X281750Y204750D02*
X498577D01*
X56750Y464000D02*
X106540Y513790D01*
X72090Y446340D02*
X124750Y499000D01*
X74750Y426000D02*
X132540Y483790D01*
X46333Y446340D02*
X72090D01*
X473000Y305250D02*
Y389208D01*
X481750Y397958D01*
X476750Y358840D02*
X518980D01*
X490801Y377293D02*
X510312D01*
X517210Y384190D01*
X496750Y489357D02*
Y511500D01*
Y489357D02*
X526098Y460009D01*
X470164Y252537D02*
X526098Y308472D01*
X334963Y252537D02*
X470164D01*
X321750Y265750D02*
X334963Y252537D01*
X256750Y267000D02*
X291748Y301998D01*
X321750Y265750D02*
Y337050D01*
X460477Y268250D02*
X525735Y333508D01*
X437750Y268250D02*
X460477D01*
X428750Y277250D02*
X437750Y268250D01*
X428750Y277250D02*
Y323837D01*
X259500Y222250D02*
X272500D01*
X163750Y251000D02*
X306640D01*
X150750Y267000D02*
X256750D01*
X357457Y388293D02*
X383046D01*
X350640Y395110D02*
X357457Y388293D01*
X525735Y333508D02*
Y333693D01*
X317906Y460250D02*
X319259D01*
X327799Y468790D01*
X350640D01*
X428750Y323837D02*
Y339163D01*
X383046Y384867D02*
X428750Y339163D01*
X267000Y308250D02*
X270500D01*
X246750Y288000D02*
X267000Y308250D01*
X270040Y477047D02*
X301797D01*
X308540Y483790D01*
X239703Y460047D02*
X291042D01*
X215960Y483790D02*
X239703Y460047D01*
X287041Y436796D02*
X289454D01*
X305000Y421250D01*
X321250Y438250D02*
X321790Y438790D01*
X330832Y423790D02*
X350640D01*
X328292Y421250D02*
X330832Y423790D01*
X305000Y421250D02*
X328292D01*
X321790Y438790D02*
X350640D01*
X372502D01*
X383046Y384867D02*
Y388293D01*
X378750Y408500D02*
X387195D01*
X350640Y453790D02*
X369687D01*
X377647Y461750D01*
X379000D01*
X308540Y483790D02*
X350640D01*
Y395110D02*
Y408790D01*
Y498790D02*
X382107D01*
X242250Y495000D02*
X294750D01*
X118750Y374506D02*
X168034Y423790D01*
X187740Y498290D02*
X238960D01*
X349430Y515000D02*
X350640Y513790D01*
X162750Y380000D02*
X163707Y380957D01*
X187240Y483790D02*
X215960D01*
X256500Y442250D02*
X291640Y407110D01*
X226748Y333998D02*
X227705Y334955D01*
X216640Y384537D02*
Y386790D01*
X163707Y380957D02*
Y392757D01*
X168034Y423790D02*
X187240D01*
X261640Y356243D02*
Y386790D01*
X187240Y498790D02*
X187740Y498290D01*
X227705Y346414D02*
X246640Y365349D01*
X188103Y376000D02*
X196640Y384537D01*
X163707Y392757D02*
X179740Y408790D01*
X250250Y442250D02*
X256500D01*
X238960Y498290D02*
X242250Y495000D01*
X179740Y408790D02*
X187240D01*
X264750Y515000D02*
X349430D01*
X106540Y513790D02*
X187240D01*
X246640Y365349D02*
Y386790D01*
X291640D02*
Y407110D01*
X118750Y374000D02*
Y374506D01*
X227705Y334955D02*
Y346414D01*
X186750Y376000D02*
X188103D01*
X196640Y384537D02*
X216640D01*
X523250Y281000D02*
Y283500D01*
X480250Y238000D02*
X523250Y281000D01*
X319640Y238000D02*
X480250Y238000D01*
X524290Y257290D02*
X526480D01*
X489250Y222250D02*
X524290Y257290D01*
X272500Y222250D02*
X489250Y222250D01*
X306640Y251000D02*
X319640Y238000D01*
X464350Y404600D02*
X464750Y405000D01*
X481750Y397958D02*
Y413000D01*
X517210Y384190D02*
X518480D01*
X482250Y440000D02*
X483207Y439043D01*
X479750Y440000D02*
X482250D01*
X496664Y464043D02*
X525717Y434990D01*
X483207Y439043D02*
X496264D01*
X488750Y465000D02*
X489707Y464043D01*
X496664D01*
X525717Y434990D02*
X526480D01*
X496264Y439043D02*
X525717Y409590D01*
X526480D01*
X433791Y358605D02*
Y361450D01*
X428750Y323837D02*
X428750Y323837D01*
X231640Y370855D02*
Y386790D01*
X215785Y355000D02*
X231640Y370855D01*
X98750Y355000D02*
X215785D01*
X306640Y252000D02*
Y386790D01*
X291640Y320148D02*
Y386790D01*
X291748Y301998D02*
Y320040D01*
X291640Y320148D02*
X291748Y320040D01*
X321640Y337160D02*
X321750Y337050D01*
X321640Y337160D02*
Y386790D01*
X238832Y308040D02*
X276640Y345848D01*
X31570Y308040D02*
X238832D01*
X276640Y345848D02*
Y386790D01*
X105750Y332000D02*
X106000Y331750D01*
X134500D01*
X134750Y331500D01*
X42310Y495000D02*
X59750D01*
X31570Y485740D02*
X32310Y485000D01*
X223540Y513790D02*
X241750Y532000D01*
X187240Y513790D02*
X223540D01*
X69170Y232420D02*
X69749Y232999D01*
X32150Y232420D02*
X69170D01*
X31570Y231840D02*
X32150Y232420D01*
X32930Y282000D02*
X94750D01*
X31930Y283000D02*
X32930Y282000D01*
X124750Y499000D02*
X187030D01*
X132540Y483790D02*
X187240D01*
X41273Y426000D02*
X74750D01*
X140540Y468790D02*
X187240D01*
X81290Y409540D02*
X140540Y468790D01*
X31570Y409540D02*
X81290D01*
X148498Y453790D02*
X187240D01*
X78848Y384140D02*
X148498Y453790D01*
X31570Y384140D02*
X78848D01*
X77490Y358740D02*
X93750Y375000D01*
X31570Y358740D02*
X77490D01*
X157540Y438790D02*
X187240D01*
X93750Y375000D02*
X157540Y438790D01*
X32333Y460340D02*
X46333Y446340D01*
X31570Y460340D02*
X32333D01*
X32333Y434940D02*
X41273Y426000D01*
X31570Y434940D02*
X32333D01*
X31570Y282640D02*
X31930Y283000D01*
X32190Y256620D02*
X110130D01*
X110750Y256000D01*
X90190Y206440D02*
X150750Y267000D01*
X31570Y206440D02*
X90190D01*
X31570Y257240D02*
X32190Y256620D01*
X77140Y333390D02*
X98750Y355000D01*
X31070Y333390D02*
X77140D01*
X246750Y287000D02*
Y288000D01*
X128500Y215750D02*
X163750Y251000D01*
X128500Y142500D02*
Y215750D01*
X187030Y499000D02*
X187240Y498790D01*
D24*
X359750Y331500D02*
X410250D01*
X340250D02*
X359750D01*
X410250D02*
X410250Y331500D01*
X134750D02*
X204750D01*
X134750Y286500D02*
X204750D01*
D25*
X526750Y485790D02*
Y515250D01*
X443000Y504000D02*
X470250Y531250D01*
X443000Y480800D02*
Y504000D01*
X452500Y286250D02*
Y369700D01*
X443000Y379200D02*
X452500Y369700D01*
X245750Y22500D02*
X245750Y22500D01*
X212250Y22500D02*
X245750D01*
X470250Y531250D02*
X510750D01*
X271750Y161000D02*
X480990D01*
X526480Y206490D01*
X546480Y198730D02*
Y467967D01*
X525750Y178000D02*
X546480Y198730D01*
X186850Y122250D02*
X218674Y90426D01*
X186850Y122250D02*
Y183750D01*
X218674Y90426D02*
X243176D01*
X243750Y91000D01*
X44750Y22500D02*
Y97750D01*
X11000Y131500D02*
X44750Y97750D01*
X11000Y467347D02*
X23493Y479840D01*
X11000Y131500D02*
X11000Y467347D01*
X23493Y479840D02*
X24046D01*
X29946Y485740D01*
X31570D01*
X44750Y22500D02*
X212250D01*
X534557Y479890D02*
X546480Y467967D01*
X534003Y479890D02*
X534557D01*
X528103Y485790D02*
X534003Y479890D01*
X526750Y485790D02*
X528103D01*
X510750Y531250D02*
X526750Y515250D01*
X526480Y485790D02*
X526750D01*
X237900Y184000D02*
X404750D01*
X237650Y183750D02*
X237900Y184000D01*
X340250Y286500D02*
X367545D01*
X410250D01*
X367545Y269537D02*
Y286500D01*
X158750Y121000D02*
Y204400D01*
X138750Y101000D02*
X158750Y121000D01*
X86250Y101000D02*
X138750D01*
X196750Y208000D02*
X212250Y232500D01*
X44750Y142500D02*
X86250Y101000D01*
X158750Y204400D02*
X186850Y232500D01*
X212250Y183750D02*
X237650Y232500D01*
X212250Y142500D02*
Y183750D01*
D26*
X205250Y287000D02*
X226750D01*
X204750Y286500D02*
X205250Y287000D01*
D27*
X212250Y142500D02*
D03*
X128500D02*
D03*
X44750D02*
D03*
Y22500D02*
D03*
X212250D02*
D03*
D28*
X417600Y379200D02*
D03*
X443000Y379200D02*
D03*
X417600Y404600D02*
D03*
X443000Y404600D02*
D03*
Y480800D02*
D03*
X443000Y430000D02*
D03*
X443000Y455400D02*
D03*
X417600D02*
D03*
Y430000D02*
D03*
X417600Y480800D02*
D03*
X212250Y183750D02*
D03*
X237650Y183750D02*
D03*
X186850D02*
D03*
X212250Y232500D02*
D03*
X186850Y232500D02*
D03*
X237650Y232500D02*
D03*
X134750Y331500D02*
D03*
X134750Y286500D02*
D03*
X204750D02*
D03*
Y331500D02*
D03*
X410250Y286500D02*
D03*
X410250Y331500D02*
D03*
X340250Y331500D02*
D03*
Y286500D02*
D03*
X526480Y206490D02*
D03*
X526480Y231890D02*
D03*
Y257290D02*
D03*
X526480Y333490D02*
D03*
X526480Y308090D02*
D03*
X526480Y282690D02*
D03*
X526980Y358840D02*
D03*
X526480Y434990D02*
D03*
X526480Y409590D02*
D03*
X526480Y384190D02*
D03*
Y460390D02*
D03*
Y485790D02*
D03*
X31570Y485740D02*
D03*
Y460340D02*
D03*
Y434940D02*
D03*
X31570Y358740D02*
D03*
X31570Y384140D02*
D03*
X31570Y409540D02*
D03*
X31070Y333390D02*
D03*
X31570Y257240D02*
D03*
X31570Y282640D02*
D03*
X31570Y308040D02*
D03*
Y231840D02*
D03*
X31570Y206440D02*
D03*
D29*
X344250Y371500D02*
D03*
X245750Y22500D02*
D03*
X74749Y232999D02*
D03*
X271750Y161000D02*
D03*
X525750Y178000D02*
D03*
X243750Y91000D02*
D03*
X56750Y464000D02*
D03*
X473000Y305250D02*
D03*
X490801Y377293D02*
D03*
X477301Y503299D02*
D03*
X496750Y511500D02*
D03*
X404750Y184000D02*
D03*
X367545Y269537D02*
D03*
X281750Y204750D02*
D03*
X452500Y286250D02*
D03*
X433798Y358292D02*
D03*
X259500Y222250D02*
D03*
X270500Y308250D02*
D03*
X270040Y477047D02*
D03*
X291042Y460047D02*
D03*
X287041Y436796D02*
D03*
X321250Y438250D02*
D03*
X317906Y460250D02*
D03*
X383046Y388293D02*
D03*
X379000Y461750D02*
D03*
X378750Y408500D02*
D03*
X395500Y441500D02*
D03*
X392250Y480000D02*
D03*
X382107Y498790D02*
D03*
X246748Y339998D02*
D03*
X118750Y374000D02*
D03*
X226748Y333998D02*
D03*
X186750Y376000D02*
D03*
X294750Y495000D02*
D03*
X250250Y442250D02*
D03*
X264750Y515000D02*
D03*
X162750Y380000D02*
D03*
X464750Y405000D02*
D03*
X482250Y440000D02*
D03*
X488750Y465000D02*
D03*
X59750Y495000D02*
D03*
X94750Y282000D02*
D03*
X93750Y375000D02*
D03*
X105750Y332000D02*
D03*
X110750Y256000D02*
D03*
X196750Y208000D02*
D03*
M02*
